# Blender v2.93.2 OBJ File: ''
# www.blender.org
mtllib DualSurfaceMesh.mtl
o Plane
v 0.000000 0.000000 1.000000
v 2.000000 0.000000 1.000000
v 0.000000 0.000000 -1.000000
v 2.000000 0.000000 -1.000000
v -2.000000 0.000000 1.000000
v 0.000000 0.000000 1.000000
v -2.000000 0.000000 -1.000000
v 0.000000 0.000000 -1.000000
vt 0.000000 0.000000
vt 1.000000 0.000000
vt 1.000000 1.000000
vt 0.000000 1.000000
vt 0.000000 0.000000
vt 1.000000 0.000000
vt 1.000000 1.000000
vt 0.000000 1.000000
vn 0.0000 1.0000 0.0000
g Plane_Plane_Material.001
usemtl Material.001
s off
f 1/1/1 2/2/1 4/3/1 3/4/1
g Plane_Plane_Material.002
usemtl Material.002
f 5/5/1 6/6/1 8/7/1 7/8/1
